<?xml version="1.0" standalone="no"?>
<!DOCTYPE svg PUBLIC "-//W3C//DTD SVG 20010904//EN"
 "http://www.w3.org/TR/2001/REC-SVG-20010904/DTD/svg10.dtd">
<svg version="1.0" xmlns="http://www.w3.org/2000/svg"
 width="656.000000pt" height="423.000000pt" viewBox="0 0 656.000000 423.000000"
 preserveAspectRatio="xMidYMid meet">

<g transform="translate(0.000000,423.000000) scale(0.100000,-0.100000)"
fill="#000000" stroke="none">
<path d="M3097 3880 c-3 -11 -2 -20 3 -20 12 0 21 28 11 35 -5 2 -11 -4 -14
-15z"/>
<path d="M3257 3886 c-4 -9 -14 -13 -26 -11 -11 2 -23 -1 -27 -7 -4 -6 -10 -5
-15 3 -5 8 -9 9 -9 3 0 -6 -12 -10 -27 -9 -16 1 -31 -2 -34 -7 -3 -5 -40 -10
-82 -11 -43 -1 -77 -6 -78 -12 0 -5 -4 -1 -9 10 -6 14 -9 15 -9 5 -1 -9 -15
-24 -32 -34 -22 -13 -29 -15 -24 -5 6 11 5 12 -6 2 -7 -7 -23 -13 -35 -13 -12
0 -25 -6 -27 -12 -3 -7 -6 -2 -6 11 -1 13 -4 21 -8 17 -8 -8 -9 -13 -12 -41 0
-8 -16 -18 -33 -24 -61 -18 -123 -43 -135 -53 -9 -7 -17 -7 -28 2 -12 10 -15
10 -15 -3 0 -15 -8 -17 -100 -30 -26 -4 -40 -18 -40 -39 0 -17 -3 -18 -14 -9
-11 10 -20 10 -37 1 -17 -10 -20 -9 -13 2 5 8 1 7 -12 -3 -10 -9 -28 -19 -39
-24 -12 -4 -15 -9 -8 -12 7 -2 21 1 32 7 33 17 24 -4 -9 -23 -16 -10 -30 -22
-30 -26 0 -5 -11 -12 -25 -15 -14 -4 -25 -11 -25 -17 0 -6 -9 -8 -19 -4 -11 3
-22 1 -26 -5 -3 -5 -1 -10 5 -10 6 0 9 -4 5 -10 -3 -5 -13 -6 -22 -3 -12 5
-14 3 -8 -7 6 -9 4 -12 -6 -8 -8 3 -21 -2 -29 -10 -13 -14 -12 -15 4 -9 16 6
17 5 6 -8 -7 -8 -17 -12 -23 -8 -5 3 -7 2 -4 -4 8 -12 -28 -43 -51 -44 -10 0
-12 -3 -4 -6 6 -2 12 -9 12 -14 0 -6 -5 -7 -10 -4 -6 4 -17 1 -26 -5 -11 -10
-12 -16 -3 -26 9 -11 8 -14 -1 -14 -7 0 -10 -8 -7 -19 3 -14 1 -18 -10 -14 -8
3 -13 14 -10 24 3 11 1 16 -5 13 -5 -4 -7 -19 -4 -35 4 -21 1 -29 -13 -34 -11
-3 -29 -21 -42 -40 -13 -19 -27 -35 -30 -35 -4 0 -12 -13 -19 -30 -7 -16 -17
-30 -23 -30 -6 0 -7 -3 -4 -7 4 -3 0 -11 -9 -17 -8 -6 -16 -18 -18 -26 -4 -22
-29 -74 -39 -81 -8 -6 -15 -29 -16 -56 -1 -7 -9 -13 -18 -14 -11 0 -13 -3 -5
-6 6 -2 10 -9 6 -14 -3 -5 0 -9 5 -9 6 0 11 -4 11 -10 0 -5 -9 -10 -21 -10
-11 0 -17 -4 -14 -10 3 -5 2 -10 -2 -10 -5 0 -10 -10 -10 -22 -3 -42 -36 -167
-43 -163 -11 7 -20 -21 -20 -61 0 -21 -4 -33 -10 -29 -7 4 -7 -3 0 -19 5 -14
6 -26 2 -26 -7 0 -11 -29 -13 -92 -1 -16 -5 -28 -10 -28 -11 0 -7 -23 6 -32 6
-5 5 -8 -2 -8 -9 0 -10 -7 -3 -25 6 -15 6 -25 0 -25 -4 0 -7 -14 -5 -32 3 -21
-1 -36 -13 -45 -16 -14 -16 -14 0 -9 13 4 17 0 16 -17 -1 -12 2 -32 6 -44 6
-19 4 -22 -11 -16 -17 7 -17 6 0 -12 16 -15 18 -30 14 -92 -4 -60 -2 -73 9
-69 8 3 14 1 14 -4 0 -6 -6 -10 -12 -10 -9 0 -9 -3 -2 -8 17 -11 25 -42 11
-42 -9 0 -9 -2 0 -8 7 -4 11 -18 8 -30 -2 -13 0 -20 5 -17 5 3 9 -3 9 -12 0
-16 6 -48 11 -63 1 -3 2 -8 1 -12 0 -5 3 -8 7 -8 4 0 9 -12 10 -27 1 -16 7
-30 13 -31 6 -3 6 -9 -2 -18 -9 -11 -8 -14 5 -14 10 0 14 -5 11 -10 -3 -5 -1
-10 4 -10 6 0 11 -5 11 -11 0 -5 -6 -7 -12 -3 -7 4 -6 -1 2 -12 9 -10 26 -40
39 -66 12 -26 26 -50 31 -53 5 -3 7 -14 5 -25 -2 -13 2 -20 11 -20 8 0 12 -4
9 -10 -3 -5 -1 -10 5 -10 7 0 9 -7 6 -16 -4 -10 -2 -13 6 -8 8 5 9 2 5 -9 -4
-10 -2 -16 6 -14 7 1 12 -7 12 -18 0 -28 13 -45 30 -39 9 4 18 -2 22 -12 4
-11 14 -25 22 -32 11 -9 11 -11 2 -6 -9 5 -8 -2 5 -19 18 -26 42 -39 28 -15
-5 7 -3 8 5 3 9 -5 9 -11 3 -17 -7 -7 -6 -16 5 -27 9 -9 19 -15 21 -13 8 6 41
-52 35 -61 -3 -6 -1 -7 4 -4 14 9 37 -19 28 -32 -4 -7 1 -8 11 -4 10 3 15 2
12 -3 -3 -5 0 -15 8 -22 8 -7 14 -10 14 -6 0 3 7 1 15 -6 8 -7 12 -16 9 -21
-3 -5 -1 -9 4 -9 14 0 52 -36 46 -43 -3 -3 3 -3 15 0 17 4 21 1 21 -18 0 -12
3 -19 6 -16 11 10 45 -13 38 -25 -4 -7 -2 -8 5 -4 14 9 43 -12 35 -25 -3 -5 2
-6 11 -3 10 4 14 2 10 -8 -4 -9 0 -15 9 -15 8 0 13 4 10 9 -3 4 2 5 10 2 9 -3
14 -10 11 -14 -6 -9 19 -20 46 -20 10 0 19 -4 19 -10 0 -5 7 -6 17 -3 12 5 14
3 8 -7 -5 -9 -4 -11 3 -6 11 7 21 1 62 -36 11 -10 20 -13 22 -6 2 6 12 3 23
-8 10 -11 21 -19 24 -18 19 3 40 -11 45 -29 4 -16 8 -18 19 -8 12 9 18 8 31
-5 9 -9 23 -13 31 -10 8 3 18 -2 23 -11 6 -10 12 -12 16 -5 5 8 18 7 45 -3 22
-7 42 -11 45 -8 3 3 12 1 19 -5 8 -7 16 -9 19 -6 3 3 22 -1 41 -9 25 -11 38
-12 46 -4 8 8 11 8 11 0 0 -7 12 -13 28 -15 15 -2 26 -7 25 -13 -1 -5 15 -11
35 -12 21 -1 46 -4 57 -6 11 -3 23 -6 28 -6 4 -1 7 -9 8 -18 0 -14 3 -12 10 5
5 15 13 21 21 16 7 -4 25 -7 40 -6 22 2 26 -1 21 -15 -5 -16 -4 -16 9 1 8 10
26 20 40 21 21 3 25 0 21 -19 -4 -19 -3 -18 11 4 10 16 15 19 16 10 0 -10 3
-11 8 -4 4 6 22 10 40 9 17 -1 32 3 32 8 0 5 9 7 20 4 11 -3 22 -2 25 2 6 11
75 12 75 1 0 -6 -4 -10 -10 -10 -19 0 -10 -18 11 -23 18 -5 20 -2 16 19 -4 24
4 28 51 27 6 -1 13 4 13 11 1 6 5 -2 9 -19 l8 -30 1 28 c1 22 7 29 31 34 17 3
33 10 36 14 3 5 16 9 29 9 13 0 26 6 28 13 3 6 6 -1 7 -18 l2 -30 10 33 c6 17
16 32 22 32 6 0 27 8 46 18 19 11 40 17 47 15 6 -2 14 1 18 6 3 6 20 11 37 11
18 0 45 11 63 24 18 14 36 21 41 16 15 -14 78 23 85 50 4 14 7 19 8 12 1 -17
46 -11 86 11 17 9 26 16 22 17 -5 0 -17 -5 -28 -10 -32 -18 -21 6 16 34 19 15
40 24 45 21 6 -3 7 1 4 9 -4 11 0 16 10 16 9 0 16 4 16 9 0 5 7 12 16 15 8 3
12 2 9 -4 -3 -6 1 -10 10 -10 12 0 15 6 10 21 -5 15 -4 19 4 15 6 -4 11 -2 11
4 0 7 7 9 16 6 8 -3 12 -2 9 4 -3 6 2 10 12 11 10 0 13 3 6 5 -7 3 0 17 18 35
16 17 33 27 38 24 5 -3 12 -1 16 5 3 5 1 10 -4 10 -6 0 -11 5 -11 11 0 5 4 7
10 4 5 -3 18 -1 27 4 10 6 12 11 6 11 -7 0 -13 7 -13 15 0 16 10 19 25 8 6 -5
7 -4 3 1 -5 6 -8 17 -8 25 0 11 3 11 13 -4 13 -17 14 -17 20 4 3 11 1 19 -4
15 -5 -3 -9 2 -9 10 0 9 7 16 16 16 15 0 49 27 49 39 1 16 32 51 44 51 8 0 12
3 8 6 -10 10 14 64 30 64 8 0 11 5 8 10 -3 6 -1 10 5 10 6 0 8 5 5 10 -3 6 -1
10 6 10 7 0 10 3 6 6 -3 4 7 33 24 65 16 33 26 59 22 60 -5 0 0 4 11 8 17 7
17 8 2 23 -15 15 -15 17 4 23 11 4 18 11 15 16 -4 5 0 9 7 9 9 0 9 3 -2 10 -8
5 -10 10 -4 10 6 0 11 6 12 13 4 42 36 155 43 151 5 -3 9 -1 9 4 0 5 7 49 16
98 8 49 17 105 18 125 1 19 6 40 9 46 4 6 1 14 -5 16 -10 4 -10 6 0 6 10 1 10
6 2 21 -7 13 -7 20 -1 20 6 0 8 16 6 38 -15 117 -14 132 8 133 15 0 17 2 7 6
-25 10 -30 26 -29 91 2 41 -2 67 -10 71 -7 5 -13 33 -14 68 -1 34 -6 58 -11
55 -5 -3 -7 2 -3 11 3 10 2 17 -4 17 -6 0 -7 5 -4 10 3 6 2 10 -4 10 -5 0 -8
9 -6 20 2 10 -5 36 -15 57 -13 28 -15 40 -7 45 9 6 9 8 0 8 -7 0 -13 7 -13 15
0 8 -6 15 -12 15 -9 0 -8 4 2 10 11 7 11 10 2 10 -7 0 -10 5 -7 10 3 6 -2 10
-11 10 -10 0 -15 3 -11 6 3 4 -5 28 -19 55 -13 27 -23 51 -22 53 2 2 -6 13
-16 25 -11 12 -15 21 -11 21 5 0 1 6 -10 13 -11 9 -15 19 -10 27 5 9 4 11 -3
6 -11 -7 -13 -2 -16 33 -1 8 -10 19 -21 25 -25 14 -35 28 -29 38 3 4 -5 8 -18
8 -18 0 -20 2 -8 10 13 8 13 10 -1 10 -18 0 -52 34 -43 43 3 3 -2 16 -11 29
l-17 23 6 -25 c4 -16 -1 -10 -15 15 -12 22 -21 45 -22 52 0 6 -7 9 -14 6 -10
-4 -13 0 -11 13 2 10 -3 19 -10 19 -8 0 -19 7 -25 16 -7 8 -20 18 -31 22 -10
4 -16 13 -13 22 4 10 1 12 -11 8 -9 -3 -14 -3 -10 2 8 8 -28 45 -44 45 -4 0
-17 8 -27 18 -37 32 -50 42 -61 42 -5 0 -10 7 -10 15 0 8 -6 12 -13 9 -8 -3
-20 3 -28 13 -13 16 -12 17 4 4 9 -7 17 -9 17 -3 0 16 -26 22 -39 9 -9 -9 -13
-6 -17 11 -4 12 -10 20 -14 17 -12 -7 -72 20 -63 29 4 4 0 4 -10 0 -10 -3 -17
-1 -17 5 0 6 -9 11 -20 11 -11 0 -20 4 -20 9 0 5 -14 11 -31 15 -17 3 -28 10
-24 16 3 5 0 7 -9 4 -8 -3 -23 3 -34 14 -11 11 -23 18 -26 15 -2 -3 -15 2 -28
11 -12 9 -30 16 -40 16 -9 0 -22 8 -27 18 -7 11 -10 12 -11 3 0 -8 -6 -11 -17
-6 -27 10 -177 34 -185 29 -4 -3 -5 1 -3 9 4 10 -3 12 -27 10 -18 -2 -39 1
-47 6 -13 8 -13 12 -1 28 14 17 14 17 -6 0 -18 -15 -26 -16 -50 -6 -16 7 -39
11 -51 10 -16 0 -23 5 -23 17 0 14 -2 14 -9 3 -11 -17 -41 -24 -41 -10 0 6 -8
6 -19 -1 -28 -14 -34 -13 -27 8 5 15 4 15 -6 2 -16 -19 -46 -20 -57 -2 -7 11
-9 11 -14 -2z m-1169 -561 c-3 -3 -9 2 -12 12 -6 14 -5 15 5 6 7 -7 10 -15 7
-18z m1433 -261 c260 -123 326 -467 130 -678 -203 -219 -566 -165 -694 102
-43 92 -55 190 -34 278 30 118 82 198 173 260 84 58 143 74 259 71 88 -2 108
-6 166 -33z m-415 -1061 c10 -12 13 -31 9 -58 -7 -46 -16 -58 -41 -53 -15 3
-18 12 -15 56 3 61 -13 69 -55 27 -45 -45 -58 -91 -64 -225 -5 -117 -6 -125
-26 -128 -20 -3 -21 2 -27 145 -4 81 -10 169 -13 196 -6 46 -6 47 20 47 19 0
26 -5 26 -18 0 -30 10 -31 38 -5 15 14 36 29 47 34 29 13 85 3 101 -18z m1035
-178 c-1 -110 -5 -203 -8 -207 -9 -16 -43 -8 -44 10 -2 97 2 386 7 393 3 6 16
9 27 7 22 -3 22 -5 18 -203z m282 161 c-8 -17 -34 -60 -57 -96 -54 -84 -102
-168 -114 -201 l-10 -25 84 4 c103 5 116 -13 17 -23 -38 -4 -84 -11 -103 -16
-58 -15 -62 -13 -55 24 10 43 42 106 120 232 36 58 62 105 58 106 -5 0 -46 0
-92 -1 -65 -1 -82 2 -79 12 3 9 35 14 109 18 140 7 143 6 122 -34z m-1681 13
c9 -5 27 -30 40 -56 20 -42 23 -62 23 -168 0 -148 -7 -175 -40 -175 -16 0 -25
6 -25 16 0 11 -6 14 -22 8 -102 -32 -173 22 -149 112 22 81 74 120 143 109
l41 -7 -7 41 c-19 118 -83 141 -144 51 -27 -40 -70 -50 -64 -15 9 50 103 110
157 99 17 -4 37 -10 47 -15z m-275 -15 c20 -27 16 -44 -11 -44 -16 0 -27 7
-31 20 -3 11 -14 20 -24 20 -72 0 -134 -235 -80 -304 34 -44 89 -33 119 25 11
20 45 26 55 9 4 -6 -12 -29 -34 -52 -40 -39 -43 -40 -96 -36 -65 6 -99 32
-117 91 -22 73 23 221 83 271 28 24 39 27 78 23 27 -3 50 -12 58 -23z m745 7
c11 -18 12 -18 42 0 37 23 65 24 111 5 89 -38 101 -177 19 -230 -26 -18 -98
-19 -136 -2 -15 7 -17 -1 -20 -76 -3 -82 -3 -83 -30 -86 l-27 -3 0 123 c0 68
-3 153 -7 190 -4 37 -4 74 -1 83 9 21 34 19 49 -4z m473 -21 c44 -41 53 -183
19 -267 -44 -105 -184 -93 -215 19 -20 76 13 222 59 259 35 27 102 22 137 -11z
m274 17 c42 -21 65 -73 65 -146 0 -136 -44 -211 -124 -211 -82 0 -127 76 -114
193 16 145 84 209 173 164z m-1282 -512 c3 -9 2 -19 -2 -23 -4 -4 -10 -1 -12
6 -6 16 -23 15 -23 -2 0 -7 9 -16 21 -19 31 -8 23 -61 -10 -65 -13 -2 -28 2
-32 10 -13 19 -11 28 6 28 8 0 15 -4 15 -10 0 -5 5 -10 10 -10 6 0 10 7 10 15
0 8 -9 15 -19 15 -24 0 -37 36 -21 55 16 20 49 19 57 0z m87 -10 c-5 -19 -2
-25 10 -25 10 0 16 9 16 25 0 14 6 25 13 25 8 0 12 -19 12 -60 0 -41 -4 -60
-12 -60 -7 0 -13 11 -13 25 0 14 -4 25 -10 25 -10 0 -14 -14 -11 -37 1 -7 -5
-13 -14 -13 -12 0 -15 13 -15 60 0 47 3 60 15 60 11 0 14 -7 9 -25z m169 -18
c3 -24 9 -51 13 -60 4 -12 1 -17 -10 -17 -9 0 -16 5 -16 10 0 6 -7 10 -15 10
-8 0 -15 -4 -15 -10 0 -5 -5 -10 -11 -10 -7 0 -8 14 -3 43 4 23 7 50 6 60 0
11 7 17 22 17 20 0 24 -6 29 -43z m134 -19 c1 -45 -1 -58 -13 -58 -7 0 -14 9
-14 20 0 11 -5 20 -11 20 -6 0 -8 -9 -4 -20 5 -14 2 -20 -9 -20 -13 0 -16 12
-16 61 l0 60 33 -3 c32 -3 32 -3 34 -60z m88 2 c0 -41 -4 -60 -12 -60 -9 0
-13 19 -13 60 0 41 4 60 13 60 8 0 12 -19 12 -60z m95 38 l9 -23 0 23 c1 13 7
22 16 22 12 0 15 -13 15 -60 0 -64 -17 -81 -38 -37 l-11 22 0 -22 c-1 -14 -7
-23 -16 -23 -12 0 -15 13 -15 60 0 47 3 60 15 60 9 0 20 -10 25 -22z m160 18
c0 -2 3 -11 6 -20 4 -11 1 -16 -10 -16 -9 0 -16 5 -16 10 0 6 -4 10 -10 10 -5
0 -10 -18 -10 -40 0 -23 5 -40 11 -40 7 0 9 10 5 25 -5 21 -3 25 14 25 18 0
21 -5 18 -32 -3 -28 -7 -34 -32 -36 -16 -2 -32 2 -37 10 -13 20 -11 82 3 96
11 11 58 17 58 8z m207 -58 c1 -44 -2 -58 -13 -58 -8 0 -14 9 -14 20 0 11 -5
20 -11 20 -6 0 -8 -9 -4 -20 5 -14 2 -20 -9 -20 -13 0 -16 12 -16 61 l0 60 33
-3 c32 -3 32 -3 34 -60z m88 2 c0 -47 -3 -60 -15 -60 -12 0 -14 12 -12 60 5
81 27 81 27 0z m131 36 c3 -13 4 -38 2 -57 -3 -31 -6 -34 -40 -37 l-38 -3 0
60 0 61 35 0 c28 0 36 -4 41 -24z m114 8 c0 -10 -6 -14 -15 -10 -9 3 -15 0
-15 -9 0 -8 7 -15 15 -15 8 0 15 -4 15 -10 0 -5 -7 -10 -15 -10 -8 0 -15 -7
-15 -15 0 -8 6 -15 14 -15 8 0 18 -4 21 -10 4 -6 -8 -10 -29 -10 l-36 0 0 60
0 60 30 0 c21 0 30 -5 30 -16z m127 1 c7 -21 -4 -32 -19 -17 -16 16 -28 15
-28 -2 0 -8 10 -16 23 -18 17 -2 22 -10 22 -33 0 -25 -4 -30 -28 -33 -27 -3
-48 21 -32 36 4 4 10 1 12 -5 6 -15 33 -17 33 -3 0 6 -11 15 -25 20 -24 9 -35
47 -18 63 12 13 54 7 60 -8z m497 -331 c3 -8 2 -12 -4 -9 -6 3 -10 10 -10 16
0 14 7 11 14 -7z"/>
<path d="M3243 2996 c-98 -32 -174 -97 -208 -180 -27 -64 -26 -65 82 -59 92 6
96 5 89 -13 -15 -38 -18 -83 -7 -115 l11 -32 -101 8 -101 7 7 -24 c27 -90 94
-171 178 -213 84 -41 87 -39 87 63 l0 89 60 0 60 1 0 -89 c0 -101 2 -103 77
-70 81 37 170 139 187 215 l7 28 -101 -7 -102 -7 12 22 c12 23 10 91 -5 124
-8 18 -4 19 88 13 53 -3 99 -2 101 1 9 15 -46 110 -90 154 -66 67 -122 92
-214 95 -43 2 -93 -3 -117 -11z m165 -216 c32 -20 62 -71 62 -106 0 -31 -34
-87 -64 -105 -66 -40 -146 -15 -177 56 -51 116 71 221 179 155z"/>
<path d="M3312 2714 c-30 -21 -29 -59 3 -80 23 -15 27 -15 50 0 30 20 33 56 7
79 -23 21 -32 21 -60 1z"/>
<path d="M3113 2709 c-27 -10 -29 -26 -7 -50 13 -14 21 -16 35 -8 40 21 14 74
-28 58z"/>
<path d="M3027 2703 c-22 -21 2 -56 31 -46 17 7 15 40 -4 47 -19 7 -19 7 -27
-1z"/>
<path d="M3524 2695 c-10 -25 4 -45 30 -45 13 0 26 7 30 15 9 25 -5 45 -30 45
-14 0 -27 -7 -30 -15z"/>
<path d="M3623 2703 c-17 -6 -16 -28 1 -42 17 -14 41 11 32 34 -6 15 -12 17
-33 8z"/>
<path d="M2655 1796 c-40 -40 -46 -136 -9 -150 68 -26 133 99 83 161 -17 20
-47 16 -74 -11z"/>
<path d="M3266 1950 c-45 -54 -31 -138 29 -168 28 -14 61 1 79 37 22 42 20 82
-7 122 -31 47 -66 50 -101 9z"/>
<path d="M3568 1928 c-31 -60 -33 -215 -4 -247 27 -30 56 -23 80 19 30 50 31
217 2 249 -30 33 -53 26 -78 -21z"/>
<path d="M3876 1945 c-24 -36 -39 -119 -34 -186 7 -95 56 -127 102 -66 18 25
21 42 21 132 0 87 -3 106 -19 124 -25 28 -50 27 -70 -4z"/>
<path d="M3027 1464 c-8 -8 1 -24 14 -24 5 0 9 7 9 15 0 15 -12 20 -23 9z"/>
<path d="M3577 1464 c-8 -8 1 -24 14 -24 5 0 9 7 9 15 0 15 -12 20 -23 9z"/>
<path d="M3790 1430 c0 -22 5 -40 10 -40 6 0 10 18 10 40 0 22 -4 40 -10 40
-5 0 -10 -18 -10 -40z"/>
<path d="M2921 3864 c0 -11 3 -14 6 -6 3 7 2 16 -1 19 -3 4 -6 -2 -5 -13z"/>
<path d="M3773 3865 c3 -23 28 -27 35 -6 3 10 0 12 -11 8 -9 -3 -18 -1 -21 6
-3 7 -5 3 -3 -8z"/>
<path d="M3590 3860 c-9 -6 -10 -10 -3 -10 6 0 15 5 18 10 8 12 4 12 -15 0z"/>
<path d="M3990 3791 c0 -6 4 -13 10 -16 6 -3 7 1 4 9 -7 18 -14 21 -14 7z"/>
<path d="M2637 3753 c-3 -5 -2 -15 2 -22 5 -7 11 -9 14 -4 3 5 2 15 -2 22 -5
7 -11 9 -14 4z"/>
<path d="M3970 3746 c0 -2 9 -6 20 -9 11 -3 18 -1 14 4 -5 9 -34 13 -34 5z"/>
<path d="M4037 3729 c7 -7 15 -10 18 -7 3 3 -2 9 -12 12 -14 6 -15 5 -6 -5z"/>
<path d="M2505 3710 c3 -5 8 -10 11 -10 2 0 4 5 4 10 0 6 -5 10 -11 10 -5 0
-7 -4 -4 -10z"/>
<path d="M4110 3696 c0 -9 5 -16 10 -16 6 0 10 4 10 9 0 6 -4 13 -10 16 -5 3
-10 -1 -10 -9z"/>
<path d="M2285 3560 c3 -5 11 -10 16 -10 6 0 7 5 4 10 -3 6 -11 10 -16 10 -6
0 -7 -4 -4 -10z"/>
<path d="M2258 3543 c-10 -2 -18 -9 -18 -14 0 -14 16 -11 30 6 7 8 11 14 9 14
-2 -1 -12 -3 -21 -6z"/>
<path d="M4620 3236 c0 -2 8 -10 18 -17 15 -13 16 -12 3 4 -13 16 -21 21 -21
13z"/>
<path d="M1850 3128 c0 -10 -5 -18 -12 -18 -6 0 -9 -3 -5 -6 3 -3 12 -2 21 3
10 6 12 13 6 23 -8 13 -10 12 -10 -2z"/>
<path d="M1788 2989 c-24 -41 -23 -57 2 -29 11 13 20 31 20 42 0 24 -2 23 -22
-13z"/>
<path d="M4990 2245 c0 -8 2 -15 4 -15 2 0 6 7 10 15 3 8 1 15 -4 15 -6 0 -10
-7 -10 -15z"/>
<path d="M4858 1510 c-10 -9 -18 -25 -18 -35 0 -14 4 -13 21 9 24 31 22 51 -3
26z"/>
<path d="M4810 1396 c-5 -13 -15 -26 -22 -29 -10 -4 -11 -7 0 -18 9 -10 12
-10 12 -1 0 7 11 23 25 36 29 27 31 36 10 36 -9 0 -20 -11 -25 -24z"/>
<path d="M4390 950 c-13 -8 -12 -10 3 -10 9 0 17 5 17 10 0 12 -1 12 -20 0z"/>
<path d="M2240 909 c0 -5 5 -7 10 -4 6 3 10 8 10 11 0 2 -4 4 -10 4 -5 0 -10
-5 -10 -11z"/>
<path d="M2525 789 c-10 -15 3 -25 16 -12 7 7 7 13 1 17 -6 3 -14 1 -17 -5z"/>
<path d="M2594 749 c-3 -5 -2 -9 3 -7 4 1 23 -2 41 -6 18 -4 36 -6 38 -3 3 2
-13 9 -36 15 -24 6 -42 6 -46 1z"/>
<path d="M3996 741 c-4 -5 -2 -12 3 -15 5 -4 12 -2 15 3 4 5 2 12 -3 15 -5 4
-12 2 -15 -3z"/>
<path d="M2570 721 c0 -5 7 -15 17 -22 15 -13 15 -12 4 9 -12 23 -21 28 -21
13z"/>
<path d="M2775 690 c-3 -5 -1 -10 4 -10 6 0 11 5 11 10 0 6 -2 10 -4 10 -3 0
-8 -4 -11 -10z"/>
<path d="M3921 684 c0 -11 3 -14 6 -6 3 7 2 16 -1 19 -3 4 -6 -2 -5 -13z"/>
<path d="M2950 650 c0 -5 5 -10 11 -10 5 0 7 5 4 10 -3 6 -8 10 -11 10 -2 0
-4 -4 -4 -10z"/>
<path d="M3046 621 c-4 -5 3 -7 14 -4 23 6 26 13 6 13 -8 0 -17 -4 -20 -9z"/>
<path d="M3771 614 c0 -11 3 -14 6 -6 3 7 2 16 -1 19 -3 4 -6 -2 -5 -13z"/>
<path d="M3543 608 c-10 -18 -13 -39 -3 -33 8 5 21 45 15 45 -2 0 -7 -6 -12
-12z"/>
<path d="M3190 579 c0 -5 5 -7 10 -4 6 3 10 8 10 11 0 2 -4 4 -10 4 -5 0 -10
-5 -10 -11z"/>
<path d="M3400 571 c0 -5 9 -7 20 -4 11 3 20 7 20 9 0 2 -9 4 -20 4 -11 0 -20
-4 -20 -9z"/>
</g>
</svg>
